PathFileType	4	(X/Y/Z)	D:\TRACE\spotREDO_2-26-24\spot_justArm_Motion_1_2-platform.trc
DataRate	CameraRate	NumFrames	NumMarkers	Units	OrigDataRate	OrigDataStartFrame	OrigNumFrames
100.00	100.00	      37	5	mm	100.00	4376	      7000
Frame#	Time	Left_Front			Right_Front			Left_Aft			Right_Aft			Post			
		X1	Y1	Z1	X2	Y2	Z2	X3	Y3	Z3	X4	Y4	Z4	X5	Y5	Z5	

4376	43.750	-666.61456	-3.16337	-575.22272	748.12531	6.10918	-490.93979	-737.63593	3.82767	644.01245	831.43591	10.38198	647.69031	42.53984	624.79657	-981.43085	
4377	43.760	-665.78320	-2.41166	-575.27942	748.98505	6.36787	-490.71954	-736.75549	3.34395	643.98785	832.29120	9.76214	647.84326	43.89753	625.65607	-980.34229	
4378	43.770	-665.15509	-1.92975	-575.14069	749.73120	6.82580	-490.75021	-736.18488	3.21986	644.21246	833.15472	9.65356	648.21643	44.05533	626.54559	-980.10956	
4379	43.780	-664.28174	-1.50478	-574.99780	750.62201	6.95004	-490.49579	-735.24225	2.62696	644.29370	833.80432	8.90683	647.96674	45.05670	627.14148	-979.63831	
4380	43.790	-663.39600	-1.05109	-574.85120	751.53003	7.48313	-490.46262	-734.35938	2.00463	644.42694	834.57532	8.62168	648.53979	46.01187	627.86353	-978.95538	
4381	43.800	-662.50708	-0.82531	-574.67126	752.22717	8.09410	-490.28082	-733.73395	1.62172	644.42468	835.31421	8.16755	648.62177	46.63741	628.62445	-978.60046	
4382	43.810	-661.71448	-0.43373	-574.58246	752.69122	8.48385	-490.20316	-732.91235	1.19013	644.57324	836.18921	7.89265	648.71387	47.50165	629.28619	-978.08716	
4383	43.820	-661.01007	0.05608	-574.44897	753.80243	8.51093	-490.10043	-732.06757	0.84813	644.52222	837.06763	7.30188	648.88446	48.39191	629.96997	-977.41681	
4384	43.830	-660.17932	0.50969	-574.40277	754.55084	8.98649	-489.97702	-731.32166	0.37349	644.60846	837.77649	7.14438	649.03009	48.95954	630.88293	-976.95593	
4385	43.840	-659.39594	0.78890	-574.25677	755.35345	9.49484	-489.74747	-730.57928	-0.10810	644.78461	838.79706	6.56040	649.08380	49.30009	631.42218	-976.53632	
4386	43.850	-658.70142	1.23292	-574.25848	755.70050	10.08505	-489.83551	-729.57574	-0.56935	644.96918	839.33240	6.33159	649.13647	50.59584	632.40692	-975.74463	
4387	43.860	-657.90735	1.90352	-574.04816	756.86774	10.05896	-489.80264	-729.05255	-1.10354	645.14288	840.14172	5.70734	649.26721	51.22215	633.08972	-975.08228	
4388	43.870	-657.53748	2.48907	-573.99097	757.51544	10.71215	-489.42020	-728.32843	-1.40660	645.42847	840.64636	5.23668	649.46906	51.66057	633.87543	-974.62964	
4389	43.880	-656.85284	2.93291	-573.85889	758.00970	11.02598	-489.38190	-727.66394	-1.92981	645.35730	841.38672	4.77971	649.72876	52.39558	634.53735	-973.75580	
4390	43.890	-656.22601	3.21161	-573.76080	758.79108	11.45432	-489.07706	-727.09729	-2.33161	645.50684	842.18317	4.19167	649.78839	53.06757	635.51996	-973.16473	
4391	43.900	-655.26343	3.77824	-573.45166	759.17572	11.79465	-489.16187	-726.27197	-3.01939	645.70721	842.99377	3.96518	649.87195	53.57421	636.09845	-972.56750	
4392	43.910	-654.87762	4.08115	-573.35504	760.11938	12.12541	-488.78186	-725.73645	-3.41415	645.74805	843.66156	3.48482	649.70996	54.45238	637.01263	-971.75549	
4393	43.920	-654.02161	4.46249	-573.21655	760.47906	12.78849	-489.03986	-725.24469	-3.63152	645.83789	844.32941	3.12979	649.93219	55.23305	637.53638	-971.18237	
4394	43.930	-653.43604	4.89623	-573.23895	761.25543	13.11759	-488.94763	-724.44556	-4.29077	646.01971	844.63788	2.66721	650.18579	55.67247	638.11462	-970.75580	
4395	43.940	-652.93323	5.26802	-572.91742	761.68024	13.30891	-488.80988	-723.80444	-4.83783	646.03632	845.37775	1.94653	650.26135	56.57488	639.15381	-969.92389	
4396	43.950	-652.52130	5.91169	-572.85828	762.16248	13.56543	-488.55676	-723.37897	-5.30920	646.22443	845.83539	1.80579	650.40076	56.66562	639.79163	-969.66620	
4397	43.960	-651.93036	6.37456	-572.89325	762.75836	14.17790	-488.48123	-722.87262	-5.60311	646.26953	846.24475	1.15509	650.56818	57.17448	640.45514	-969.26666	
4398	43.970	-651.37109	6.67141	-572.77179	763.54523	14.44175	-488.42285	-722.48328	-6.00983	646.53674	846.75604	0.75843	650.61676	57.77064	641.15723	-968.63068	
4399	43.980	-650.82452	7.03850	-572.58215	764.03735	14.82749	-488.16641	-721.85632	-6.62111	646.59235	847.16125	0.06963	650.46161	58.34810	641.83020	-968.20721	
4400	43.990	-650.24237	7.41908	-572.53802	764.30536	15.05944	-488.18619	-721.38855	-7.02242	646.60492	847.74548	-0.48744	650.43762	58.95923	642.39398	-967.68988	
4401	44.000	-649.79602	7.75398	-572.41577	764.61249	15.27864	-487.92297	-720.94904	-7.29967	646.67181	848.40167	-0.88565	650.57703	59.13124	643.07227	-967.23669	
4402	44.010	-649.53986	8.05164	-572.33850	765.29199	15.89860	-487.85623	-720.53491	-7.80577	646.84979	848.72736	-1.09141	650.62976	59.64936	643.94116	-966.49963	
4403	44.020	-649.03571	8.56456	-572.04645	765.52325	16.29273	-487.87021	-720.09027	-8.17127	646.95941	849.06726	-1.45755	650.80756	60.08215	644.40131	-965.97577	
4404	44.030	-648.79962	9.29677	-571.95380	766.06995	16.58018	-487.69516	-719.83899	-8.52091	647.03357	849.59601	-1.92556	651.18457	60.13533	645.01581	-965.47675	
4405	44.040	-648.64905	9.61750	-571.90057	766.35498	16.83430	-487.58716	-719.51575	-8.86076	647.11420	849.94391	-2.27690	651.33765	60.57354	645.98810	-964.86133	
4406	44.050	-648.09271	9.91625	-571.62201	766.53619	17.24953	-487.44519	-719.09833	-9.20448	647.33759	850.24689	-2.62562	651.28192	61.10627	646.40405	-964.21936	
4407	44.060	-647.89166	10.16041	-571.54706	766.86694	17.52334	-487.20319	-718.80585	-9.68190	647.24908	850.73407	-2.93564	651.29388	61.27582	647.06171	-963.62665	
4408	44.070	-647.65778	10.54891	-571.48438	767.10669	18.08179	-487.10190	-718.44263	-10.14408	647.40747	850.92303	-3.25808	651.34509	61.37679	647.95813	-963.12573	
4409	44.080	-647.35962	10.89404	-571.48151	767.24384	18.36496	-487.02603	-718.13782	-10.73061	647.58447	851.12000	-3.82713	651.49097	61.73120	648.36041	-962.74530	
4410	44.090	-647.03473	11.28692	-571.42273	767.37744	18.61975	-486.96320	-718.03210	-10.98685	647.72797	851.26764	-4.11064	651.66052	61.79038	648.79199	-962.30981	
4411	44.100	-646.83026	11.61761	-571.33002	767.49969	18.85935	-486.94650	-717.95758	-11.31948	647.72455	851.50317	-4.48016	651.78021	62.12238	649.53088	-961.74579	
4412	44.110	-646.92767	12.16288	-571.25647	767.61835	18.96830	-486.82336	-717.88214	-11.59528	647.82513	851.74005	-4.91438	651.94647	62.23218	650.03455	-961.44879	
